<?xml version="1.0" encoding="utf-8"?>
<!-- Generator: Adobe Illustrator 22.0.1, SVG Export Plug-In . SVG Version: 6.00 Build 0)  -->
<svg version="1.1" id="Layer_1" xmlns="http://www.w3.org/2000/svg" xmlns:xlink="http://www.w3.org/1999/xlink" x="0px" y="0px"
	 viewBox="0 0 24 24" style="enable-background:new 0 0 24 24;" xml:space="preserve">
<style type="text/css">
	.st0{fill:#3C6643;}
</style>
<g>
	<path class="st0" d="M18.5,2.8c-1.5,0-2.7,1.2-2.7,2.7c0,1.3,0.9,2.4,2.2,2.6v2.8c0,0.3-0.2,0.5-0.5,0.5h-4.9V8.1
		c1.2-0.3,2.2-1.3,2.2-2.6c0-1.5-1.2-2.7-2.7-2.7S9.4,4,9.4,5.5c0,1.3,0.9,2.4,2.2,2.6v3.3H6V8.1c1.2-0.3,2.2-1.3,2.2-2.6
		C8.2,4,7,2.8,5.5,2.8S2.8,4,2.8,5.5c0,1.3,0.9,2.4,2.2,2.6v7.7c-1.2,0.3-2.2,1.3-2.2,2.6c0,1.5,1.2,2.7,2.7,2.7s2.7-1.2,2.7-2.7
		c0-1.3-0.9-2.4-2.2-2.6v-3.3h5.4v3.3c-1.2,0.3-2.2,1.3-2.2,2.6c0,1.5,1.2,2.7,2.7,2.7s2.7-1.2,2.7-2.7c0-1.3-0.9-2.4-2.2-2.6v-3.3
		h4.9c0.9,0,1.6-0.7,1.6-1.6V8.1c1.2-0.3,2.2-1.3,2.2-2.6C21.2,4,20,2.8,18.5,2.8L18.5,2.8z M7.1,18.5c0,0.9-0.7,1.6-1.6,1.6
		s-1.6-0.7-1.6-1.6s0.7-1.6,1.6-1.6S7.1,17.6,7.1,18.5L7.1,18.5z M5.5,7.1c-0.9,0-1.6-0.7-1.6-1.6s0.7-1.6,1.6-1.6s1.6,0.7,1.6,1.6
		S6.4,7.1,5.5,7.1L5.5,7.1z M13.6,18.5c0,0.9-0.7,1.6-1.6,1.6c-0.9,0-1.6-0.7-1.6-1.6s0.7-1.6,1.6-1.6
		C12.9,16.9,13.6,17.6,13.6,18.5L13.6,18.5z M12,7.1c-0.9,0-1.6-0.7-1.6-1.6s0.7-1.6,1.6-1.6c0.9,0,1.6,0.7,1.6,1.6S12.9,7.1,12,7.1
		L12,7.1z M18.5,7.1c-0.9,0-1.6-0.7-1.6-1.6s0.7-1.6,1.6-1.6s1.6,0.7,1.6,1.6S19.4,7.1,18.5,7.1L18.5,7.1z"/>
</g>
</svg>
