<?xml version="1.0" encoding="utf-8"?>
<!-- Generator: Adobe Illustrator 22.0.1, SVG Export Plug-In . SVG Version: 6.00 Build 0)  -->
<svg version="1.1" id="Layer_1" xmlns="http://www.w3.org/2000/svg" xmlns:xlink="http://www.w3.org/1999/xlink" x="0px" y="0px"
	 viewBox="0 0 24 24" style="enable-background:new 0 0 24 24;" xml:space="preserve">
<style type="text/css">
	.st0{fill:none;stroke:#CFCFCF;stroke-width:2.0081;stroke-miterlimit:10;}
	.st1{fill:none;stroke:#231F20;stroke-width:2.0081;stroke-miterlimit:10;}
	.st2{fill:#CFCFCF;}
	.st3{fill:#BFC5D0;}
	.st4{fill:none;}
	.st5{fill:#FDBA12;}
	.st6{fill:#5B8661;}
	.st7{fill:#3C6643;}
</style>
<g>
	<path class="st7" d="M21.6,11.4h-0.7c-0.2-0.7-0.9-1.2-1.7-1.2h-1.1l-2.3-1.1C15.8,9,15.7,9,15.6,9c0,0,0,0,0,0h-3V7.2
		c0.7-0.5,1.2-1.4,1.2-2.4V2.4c0-0.3-0.3-0.6-0.6-0.6H8.4C8.1,1.8,7.8,2,7.8,2.4v2.4c0,0,0,0,0,0c0,0,0,0,0,0c0,1,0.5,1.8,1.2,2.4V9
		H6C5.8,9,5.7,9.1,5.6,9.2l-1,1H3V9.6C3,9.3,2.7,9,2.4,9S1.8,9.3,1.8,9.6v4.8C1.8,14.7,2,15,2.4,15S3,14.7,3,14.4v-0.6h1.2v7.8
		c0,0.3,0.3,0.6,0.6,0.6h3.6c1,0,1.8-0.8,1.8-1.8c0-0.8-0.5-1.4-1.2-1.7v-1.3h1.8c0.2,0,0.4-0.1,0.5-0.3l1-2.1h3.2
		c0.1,0,0.2,0,0.3-0.1l2.3-1.1h1.1c0.8,0,1.4-0.5,1.7-1.2h0.7c0.3,0,0.6-0.3,0.6-0.6C22.2,11.7,22,11.4,21.6,11.4L21.6,11.4z
		 M4.2,12.6H3v-1.2h1.2V12.6z M9,3h3.6v1.2H9V3z M10.8,6.6c-0.8,0-1.4-0.5-1.7-1.2h3.4C12.2,6.1,11.6,6.6,10.8,6.6L10.8,6.6z
		 M11.4,7.7V9h-1.2V7.7c0.2,0,0.4,0.1,0.6,0.1C11,7.8,11.2,7.7,11.4,7.7L11.4,7.7z M7.8,10.2h4.8v1.2H7.8V10.2z M10.4,16.2H9V15h2
		L10.4,16.2z M15,13.8H8.4c-0.1,0-0.2,0-0.2,0c-0.2,0.1-0.4,0.3-0.4,0.6v4.8c0,0.3,0.3,0.6,0.6,0.6c0.3,0,0.6,0.3,0.6,0.6
		C9,20.8,8.7,21,8.4,21h-3V11l0.8-0.8h0.4V12c0,0.3,0.3,0.6,0.6,0.6h6c0.3,0,0.6-0.3,0.6-0.6v-1.8H15V13.8z M17.4,12.8l-1.2,0.6
		v-2.9l1.2,0.6V12.8z M19.2,12.6h-0.6v-1.2h0.6c0.3,0,0.6,0.3,0.6,0.6C19.8,12.3,19.6,12.6,19.2,12.6L19.2,12.6z M19.2,12.6"/>
</g>
</svg>
