<?xml version="1.0" encoding="utf-8"?>
<!-- Generator: Adobe Illustrator 22.0.1, SVG Export Plug-In . SVG Version: 6.00 Build 0)  -->
<svg version="1.1" id="Layer_1" xmlns="http://www.w3.org/2000/svg" xmlns:xlink="http://www.w3.org/1999/xlink" x="0px" y="0px"
	 viewBox="0 0 24 24" style="enable-background:new 0 0 24 24;" xml:space="preserve">
<style type="text/css">
	.st0{fill:none;stroke:#CFCFCF;stroke-width:2.0081;stroke-miterlimit:10;}
	.st1{fill:none;stroke:#231F20;stroke-width:2.0081;stroke-miterlimit:10;}
	.st2{fill:#CFCFCF;}
	.st3{fill:#BFC5D0;}
	.st4{fill:none;}
	.st5{fill:#FDBA12;}
	.st6{fill:#5B8661;}
	.st7{fill:#3C6643;}
</style>
<path class="st7" d="M15.8,15.8H11l-0.8-4.4c-0.2-1.2-1-2.2-2-2.7c0.8-0.6,1.2-1.6,1-2.6L9.1,5C8.8,3.6,7.4,2.6,6,2.9L4.9,3.1
	C4.6,3.1,4.4,3.4,4.5,3.7L5.4,9l1.2,8.5v2.1c0,0.9,0.7,1.6,1.6,1.6h9.7c0.9,0,1.6-0.7,1.6-1.6C19.5,17.5,17.8,15.8,15.8,15.8
	L15.8,15.8z M5.6,4l0.5-0.1C7,3.8,7.9,4.4,8,5.2l0.2,1.1C8.4,7.2,7.8,8,6.9,8.2L6.4,8.3L5.6,4z M6.6,9.4c1.3,0,2.4,0.9,2.6,2.2
	L9.7,15c-0.3-0.1-0.6-0.2-1-0.2c-0.5,0-1,0.2-1.4,0.5L6.6,9.4z M9.8,16.9c0,0.6-0.5,1.1-1.1,1.1s-1.1-0.5-1.1-1.1
	c0-0.6,0.5-1.1,1.1-1.1S9.8,16.3,9.8,16.9L9.8,16.9z M17.9,20.1H8.2c-0.3,0-0.5-0.2-0.5-0.5v-0.8C8,18.9,8.4,19,8.8,19
	c1.2,0,2.2-1,2.2-2.2h4.8c1.5,0,2.7,1.2,2.7,2.7C18.5,19.9,18.2,20.1,17.9,20.1L17.9,20.1z M17.9,20.1"/>
</svg>
