<?xml version="1.0" encoding="utf-8"?>
<!-- Generator: Adobe Illustrator 22.0.1, SVG Export Plug-In . SVG Version: 6.00 Build 0)  -->
<svg version="1.1" id="Layer_1" xmlns="http://www.w3.org/2000/svg" xmlns:xlink="http://www.w3.org/1999/xlink" x="0px" y="0px"
	 viewBox="0 0 24 24" style="enable-background:new 0 0 24 24;" xml:space="preserve">
<style type="text/css">
	.st0{fill:none;stroke:#CFCFCF;stroke-width:2.0081;stroke-miterlimit:10;}
	.st1{fill:none;stroke:#231F20;stroke-width:2.0081;stroke-miterlimit:10;}
	.st2{fill:#CFCFCF;}
	.st3{fill:#BFC5D0;}
	.st4{fill:none;}
	.st5{fill:#FDBA12;}
	.st6{fill:#5B8661;}
	.st7{fill:#3C6643;}
</style>
<g>
	<path class="st7" d="M9.1,14.3c0,0.3-0.3,0.6-0.6,0.6c-0.3,0-0.6-0.3-0.6-0.6c0-0.3,0.3-0.6,0.6-0.6C8.8,13.8,9.1,14,9.1,14.3
		L9.1,14.3z M9.1,14.3"/>
	<path class="st7" d="M16.1,14.3c0,0.3-0.3,0.6-0.6,0.6c-0.3,0-0.6-0.3-0.6-0.6c0-0.3,0.3-0.6,0.6-0.6C15.8,13.8,16.1,14,16.1,14.3
		L16.1,14.3z M16.1,14.3"/>
	<path class="st7" d="M12,2C6.5,2,2,6.5,2,12c0,5.5,4.5,10,10,10c5.5,0,10-4.5,10-10C22,6.5,17.5,2,12,2L12,2z M12,20.8
		c-4.9,0-8.8-4-8.8-8.8c0-4.9,4-8.8,8.8-8.8c4.9,0,8.8,4,8.8,8.8C20.8,16.9,16.9,20.8,12,20.8L12,20.8z M12,20.8"/>
	<path class="st7" d="M12,4.4c-4.2,0-7.6,3.4-7.6,7.6c0,2.2,0.9,4.2,2.5,5.7c0.2,0.2,0.6,0.2,0.8,0c0.2-0.2,0.2-0.6,0-0.8
		c-1.2-1.1-2-2.6-2.1-4.2h0.6c0.3,0,0.6-0.3,0.6-0.6c0-0.3-0.3-0.6-0.6-0.6H5.6C5.7,10.1,6.2,8.9,7,7.9l0.4,0.4
		c0.2,0.2,0.6,0.2,0.8,0c0.2-0.2,0.2-0.6,0-0.8L7.9,7c1-0.8,2.2-1.3,3.5-1.5v0.6c0,0.3,0.3,0.6,0.6,0.6c0.3,0,0.6-0.3,0.6-0.6V5.6
		c1.3,0.1,2.6,0.7,3.5,1.5l-0.4,0.4c-0.2,0.2-0.2,0.6,0,0.8c0.2,0.2,0.6,0.2,0.8,0L17,7.9c0.8,1,1.3,2.2,1.5,3.5h-0.6
		c-0.3,0-0.6,0.3-0.6,0.6c0,0.3,0.3,0.6,0.6,0.6h0.6c-0.1,1.6-0.9,3.1-2.1,4.2c-0.2,0.2-0.3,0.6,0,0.8c0.2,0.2,0.6,0.3,0.8,0
		c1.6-1.4,2.5-3.5,2.5-5.7C19.6,7.8,16.2,4.4,12,4.4L12,4.4z M12,4.4"/>
	<path class="st7" d="M12.6,10.3V8.5c0-0.3-0.3-0.6-0.6-0.6c-0.3,0-0.6,0.3-0.6,0.6v1.9c-0.7,0.2-1.2,0.9-1.2,1.7
		c0,1,0.8,1.8,1.8,1.8c1,0,1.8-0.8,1.8-1.8C13.8,11.2,13.3,10.6,12.6,10.3L12.6,10.3z M12,12.6c-0.3,0-0.6-0.3-0.6-0.6
		s0.3-0.6,0.6-0.6c0.3,0,0.6,0.3,0.6,0.6S12.3,12.6,12,12.6L12,12.6z M12,12.6"/>
	<path class="st7" d="M14.3,14.9H9.7c-0.3,0-0.6,0.3-0.6,0.6v2.3c0,0.3,0.3,0.6,0.6,0.6h4.7c0.3,0,0.6-0.3,0.6-0.6v-2.3
		C14.9,15.2,14.7,14.9,14.3,14.9L14.3,14.9z M13.8,17.3h-3.5v-1.2h3.5V17.3z M13.8,17.3"/>
</g>
</svg>
