<?xml version="1.0" encoding="utf-8"?>
<!-- Generator: Adobe Illustrator 22.0.1, SVG Export Plug-In . SVG Version: 6.00 Build 0)  -->
<svg version="1.1" id="Layer_1" xmlns="http://www.w3.org/2000/svg" xmlns:xlink="http://www.w3.org/1999/xlink" x="0px" y="0px"
	 viewBox="0 0 24 24" style="enable-background:new 0 0 24 24;" xml:space="preserve">
<style type="text/css">
	.st0{fill:none;stroke:#CFCFCF;stroke-width:2.0081;stroke-miterlimit:10;}
	.st1{fill:none;stroke:#231F20;stroke-width:2.0081;stroke-miterlimit:10;}
	.st2{fill:#CFCFCF;}
	.st3{fill:#BFC5D0;}
	.st4{fill:none;}
	.st5{fill:#FDBA12;}
	.st6{fill:#5B8661;}
	.st7{fill:#3C6643;}
</style>
<g>
	<path class="st7" d="M22,11.4l0-0.3c0-0.3-0.1-0.5-0.1-0.8c-0.4-2.3-1.5-4.2-3.3-5.8c-1.4-1.3-3.1-2.1-5-2.4
		c-0.2,0-0.4-0.1-0.7-0.1l-0.3,0l-1.2,0c-0.1,0-0.2,0-0.3,0c-0.3,0-0.5,0.1-0.8,0.1c-2.8,0.5-5,2-6.6,4.4C2.8,7.8,2.2,9.3,2,11
		l0,0.4l0,1.2L2,13c0,0.2,0.1,0.5,0.1,0.7c0.7,3.8,3.5,7,7.3,8c0.8,0.2,1.7,0.3,2.6,0.3c4.6,0,8.7-3.3,9.8-7.9
		c0.1-0.3,0.1-0.6,0.1-0.9c0-0.1,0-0.3,0.1-0.4c0,0,0-0.1,0-0.1l0-0.1L22,11.4z M12,3l0,0.2c5,0,8.9,3.9,8.9,8.9
		c0,5-3.9,8.9-8.9,8.9c-2.4,0-4.6-0.9-6.3-2.6C4,16.6,3.1,14.4,3.1,12C3.1,7,7,3.1,12,3.1V3L12,3z"/>
	<path class="st7" d="M12,4.4c-4.1,0-7.6,3.5-7.6,7.6c0,4.2,3.4,7.6,7.6,7.6H12c4.1,0,7.6-3.5,7.6-7.6C19.6,7.8,16.2,4.4,12,4.4z
		 M16.7,7.5L16.7,7.5c-0.2,0.1-0.3,0.1-0.4,0.2l0,0l-1.6,0.8l0,0c-0.1,0-0.1,0.1-0.2,0.1l-0.2,0.1h0c-0.1,0.1-0.2,0.1-0.3,0.2
		c-0.2-0.1-0.3-0.2-0.5-0.3c0-0.1,0-0.2,0-0.3h0L13.5,6l0,0c0-0.1,0-0.2,0-0.4C14.8,5.9,15.8,6.5,16.7,7.5z M10.6,5.6L10.6,5.6
		c0,0.2,0,0.4,0,0.6l0,0l-0.1,1.6l0,0c0,0,0,0,0,0l0,0.1h0c0,0.2,0,0.4,0,0.6c0,0,0,0,0,0C10.2,8.7,10,8.8,9.8,8.9
		C9.7,8.8,9.5,8.7,9.4,8.6l0,0L7.9,7.9l0,0C7.7,7.8,7.5,7.7,7.3,7.5l-0.1,0C8.2,6.5,9.3,5.9,10.6,5.6z M5.8,13.9
		c-0.4-1.3-0.4-2.6,0-3.9l0.1,0c0.3,0.2,0.5,0.3,0.7,0.5l1,0.7c0.2,0.1,0.4,0.3,0.6,0.4c0,0,0,0,0,0c0,0,0,0.1,0,0.1
		c0,0.1,0,0.2,0,0.3c0,0.1,0,0.2-0.2,0.3c-0.2,0.1-0.3,0.2-0.5,0.3c0,0,0,0,0,0l0,0l0,0l-1,0.7C6.3,13.6,6.1,13.7,5.8,13.9L5.8,13.9
		z M7.2,16.5l0.4-0.2c0.1,0,0.1-0.1,0.2-0.1c0,0,0.1,0,0.1-0.1l0,0l0,0c0,0,0,0,0.1,0l1.3-0.7l0,0c0.2-0.1,0.4-0.2,0.5-0.3
		c0,0,0,0,0.1,0c0,0,0.1,0.1,0.1,0.1c0.1,0.1,0.2,0.1,0.2,0.1c0.1,0,0.1,0.1,0.1,0.2c0,0.2,0,0.4,0,0.6v0l0.1,1.2c0,0,0,0,0,0
		c0,0.3,0,0.5,0,0.8l0,0.1C9.3,18.1,8.2,17.5,7.2,16.5z M13.5,18.4L13.5,18.4c0-0.3,0-0.5,0-0.7l0,0l0.1-1.7l0,0c0-0.2,0-0.3,0-0.5
		c0.1-0.1,0.4-0.3,0.5-0.3c0.2,0.1,0.3,0.2,0.5,0.3h0l0.1,0.1l0,0l0,0l1.3,0.7l0,0c0.2,0.1,0.4,0.2,0.6,0.3l0.1,0
		C16.2,17.2,14.6,18.1,13.5,18.4z M17.4,15.7l-0.3-0.2c-0.3-0.2-0.6-0.3-0.9-0.5l-0.7-0.4c-0.4-0.2-0.7-0.4-1.1-0.6
		c-0.2-0.1-0.4-0.1-0.7,0c-0.3,0.2-0.5,0.3-0.8,0.5c-0.2,0.1-0.4,0.3-0.4,0.6c0,0.6-0.1,1.2-0.1,1.8l-0.1,1c0,0.2,0,0.4,0,0.6
		c-0.1,0-0.2,0-0.3,0h-0.3l0-0.4c0-0.4,0-0.8-0.1-1.1l-0.1-2c0-0.3-0.2-0.4-0.4-0.5c-0.3-0.1-0.5-0.3-0.8-0.5
		c-0.2-0.2-0.5-0.2-0.7,0c-0.8,0.4-1.5,0.8-2.3,1.2l-0.6,0.3c0,0,0,0-0.1,0L6.2,15L7,14.4c0.7-0.5,1.3-0.9,2-1.3
		c0.3-0.2,0.4-0.4,0.3-0.7c0-0.3,0-0.5,0-0.8c0-0.3-0.1-0.5-0.3-0.7C8.4,10.5,7.7,10,7,9.6L6.3,9.1c0,0-0.1,0-0.1-0.1l0.3-0.6
		c0,0,0.1,0,0.1,0l0.7,0.4C8.1,9.2,8.8,9.6,9.5,10c0.3,0.1,0.5,0.1,0.8-0.1c0.2-0.2,0.5-0.3,0.7-0.4c0.3-0.1,0.4-0.3,0.4-0.6
		c0-0.7,0.1-1.5,0.1-2.2l0.1-1.2l0.3,0c0.1,0,0.3,0,0.4,0c0,0,0,0,0,0c0,0.7,0.1,1.4,0.1,2.1l0,0.6c0,0.2,0,0.5,0,0.7
		c0,0.3,0.1,0.5,0.4,0.6c0.3,0.1,0.5,0.3,0.7,0.4c0.3,0.2,0.5,0.2,0.8,0.1c0.7-0.4,1.4-0.8,2.1-1.2l0.9-0.5l0.4,0.6l-2.9,2
		c-0.2,0.1-0.3,0.3-0.3,0.6c0,0.4,0,0.7,0,1c0,0.3,0.1,0.4,0.3,0.6c0.7,0.5,1.4,1,2.1,1.5l0.7,0.5L17.4,15.7z M18.2,14
		c-0.2-0.1-0.3-0.2-0.5-0.4l0,0l-1.3-0.9l0,0c-0.2-0.1-0.4-0.2-0.5-0.3c0,0,0,0,0-0.1c0,0,0-0.1,0-0.1c0-0.1,0-0.2,0-0.3
		c-0.1-0.2,0-0.3,0.2-0.4c0.1-0.1,0.3-0.2,0.4-0.3v0l1.4-0.9v0c0.1-0.1,0.3-0.2,0.4-0.3l0,0C18.6,10.9,18.6,13,18.2,14L18.2,14z"/>
	<path class="st7" d="M12,10.3c-0.9,0-1.7,0.8-1.7,1.7c0,0.9,0.8,1.7,1.7,1.7h0c0.9,0,1.7-0.8,1.7-1.7c0-0.4-0.2-0.9-0.5-1.2
		C12.9,10.5,12.4,10.3,12,10.3z M12,11.4v-0.2l0,0V11.4c0.2,0,0.4,0.1,0.5,0.2c0.1,0.1,0.2,0.3,0.2,0.5c0,0.4-0.2,0.6-0.6,0.6
		c-0.4,0-0.6-0.2-0.6-0.6C11.4,11.6,11.6,11.4,12,11.4z M12,13.6L12,13.6L12,13.6L12,13.6z"/>
</g>
</svg>
