<?xml version="1.0" encoding="utf-8"?>
<!-- Generator: Adobe Illustrator 22.0.1, SVG Export Plug-In . SVG Version: 6.00 Build 0)  -->
<svg version="1.1" id="Layer_1" xmlns="http://www.w3.org/2000/svg" xmlns:xlink="http://www.w3.org/1999/xlink" x="0px" y="0px"
	 viewBox="0 0 24 24" style="enable-background:new 0 0 24 24;" xml:space="preserve">
<style type="text/css">
	.st0{fill:#FFFFFF;}
</style>
<g>
	<path class="st0" d="M8,14.9c0,0.3-0.3,0.6-0.6,0.6c-0.3,0-0.6-0.3-0.6-0.6s0.3-0.6,0.6-0.6C7.7,14.3,8,14.6,8,14.9L8,14.9z"/>
	<path class="st0" d="M11.4,14.9c0,0.3-0.3,0.6-0.6,0.6s-0.6-0.3-0.6-0.6s0.3-0.6,0.6-0.6C11.2,14.3,11.4,14.6,11.4,14.9L11.4,14.9z
		"/>
	<path class="st0" d="M14.9,14.9c0,0.3-0.3,0.6-0.6,0.6s-0.6-0.3-0.6-0.6s0.3-0.6,0.6-0.6C14.6,14.3,14.9,14.6,14.9,14.9L14.9,14.9z
		"/>
	<path class="st0" d="M21.2,9.7H20c-0.2,0-0.3,0.1-0.4,0.2l-1,1h-1.5v-0.6c0-0.3-0.3-0.6-0.6-0.6h-2.9V8.5h0.6
		c0.3,0,0.6-0.3,0.6-0.6V6.2h0.6C15.8,6.2,16,6,16,5.7s-0.3-0.6-0.6-0.6H6.2c-0.3,0-0.6,0.3-0.6,0.6c0,0.3,0.3,0.6,0.6,0.6h0.6V8
		c0,0.3,0.3,0.6,0.6,0.6H8v1.2H5.1c-0.3,0-0.6,0.3-0.6,0.6V11H3.3v-0.6c0-0.3-0.3-0.6-0.6-0.6S2.2,10,2.2,10.3v6.9
		c0,0.3,0.3,0.6,0.6,0.6s0.6-0.3,0.6-0.6v-0.6h1.5L7,18.7c0.1,0.1,0.3,0.2,0.4,0.2h9.2c0.3,0,0.6-0.3,0.6-0.6v-0.6h1.5l1,1
		c0.1,0.1,0.3,0.2,0.4,0.2h1.2c0.3,0,0.6-0.3,0.6-0.6v-8.1C21.8,10,21.6,9.7,21.2,9.7L21.2,9.7z M4.5,15.5H3.3V12h1.2V15.5z M8,6.2
		h5.8v1.2H8V6.2z M12.6,8.5v1.2H9.1V8.5H12.6z M16,17.2v0.6H7.6l-2-2v-2.6H16V17.2z M16,12H5.7v-1.2H16V12z M18.4,16.6h-1.2V12h1.2
		V16.6z M20.7,17.8h-0.3L19.6,17v-5.3l0.8-0.8h0.3V17.8z"/>
</g>
</svg>
