<?xml version="1.0" encoding="utf-8"?>
<!-- Generator: Adobe Illustrator 22.0.1, SVG Export Plug-In . SVG Version: 6.00 Build 0)  -->
<svg version="1.1" id="Layer_1" xmlns="http://www.w3.org/2000/svg" xmlns:xlink="http://www.w3.org/1999/xlink" x="0px" y="0px"
	 viewBox="0 0 24 24" style="enable-background:new 0 0 24 24;" xml:space="preserve">
<style type="text/css">
	.st0{fill:#FFFFFF;}
</style>
<g>
	<path class="st0" d="M22,11.4v-0.3c0-0.3-0.1-0.5-0.1-0.8c-0.4-2.3-1.5-4.2-3.3-5.8c-1.4-1.3-3.1-2.1-5-2.4c-0.2,0-0.4-0.1-0.7-0.1
		h-0.3h-1.2c-0.1,0-0.2,0-0.3,0c-0.3,0-0.5,0.1-0.8,0.1c-2.8,0.5-5,2-6.6,4.4C2.8,7.8,2.2,9.3,2,11v0.4v1.2V13
		c0,0.2,0.1,0.5,0.1,0.7c0.7,3.8,3.5,7,7.3,8c0.8,0.2,1.7,0.3,2.6,0.3c4.6,0,8.7-3.3,9.8-7.9c0.1-0.3,0.1-0.6,0.1-0.9
		c0-0.1,0-0.3,0.1-0.4v-0.1v-0.1V11.4z M12,3v0.2c5,0,8.9,3.9,8.9,8.9S17,21,12,21c-2.4,0-4.6-0.9-6.3-2.6c-1.7-1.8-2.6-4-2.6-6.4
		C3.1,7,7,3.1,12,3L12,3L12,3z"/>
	<path class="st0" d="M12,4.4c-4.1,0-7.6,3.5-7.6,7.6c0,4.2,3.4,7.6,7.6,7.6l0,0c4.1,0,7.6-3.5,7.6-7.6C19.6,7.8,16.2,4.4,12,4.4z
		 M16.7,7.5L16.7,7.5c-0.2,0.1-0.3,0.1-0.4,0.2l0,0l-1.6,0.8l0,0c-0.1,0-0.1,0.1-0.2,0.1l-0.2,0.1l0,0c-0.1,0.1-0.2,0.1-0.3,0.2
		c-0.2-0.1-0.3-0.2-0.5-0.3c0-0.1,0-0.2,0-0.3l0,0l0-2.3l0,0c0-0.1,0-0.2,0-0.4C14.8,5.9,15.8,6.5,16.7,7.5z M10.6,5.6L10.6,5.6
		c0,0.2,0,0.4,0,0.6l0,0l-0.1,1.6l0,0l0,0v0.1l0,0c0,0.2,0,0.4,0,0.6l0,0C10.2,8.7,10,8.8,9.8,8.9C9.7,8.8,9.5,8.7,9.4,8.6l0,0
		L7.9,7.9l0,0C7.7,7.8,7.5,7.7,7.3,7.5H7.2C8.2,6.5,9.3,5.9,10.6,5.6z M5.8,13.9c-0.4-1.3-0.4-2.6,0-3.9h0.1
		c0.3,0.2,0.5,0.3,0.7,0.5l1,0.7c0.2,0.1,0.4,0.3,0.6,0.4l0,0v0.1c0,0.1,0,0.2,0,0.3s0,0.2-0.2,0.3s-0.3,0.2-0.5,0.3l0,0l0,0l0,0
		l-1,0.7C6.3,13.6,6.1,13.7,5.8,13.9L5.8,13.9z M7.2,16.5l0.4-0.2c0.1,0,0.1-0.1,0.2-0.1c0,0,0.1,0,0.1-0.1l0,0l0,0c0,0,0,0,0.1,0
		l1.3-0.7l0,0c0.2-0.1,0.4-0.2,0.5-0.3c0,0,0,0,0.1,0l0.1,0.1c0.1,0.1,0.2,0.1,0.2,0.1c0.1,0,0.1,0.1,0.1,0.2c0,0.2,0,0.4,0,0.6l0,0
		l0.1,1.2l0,0c0,0.3,0,0.5,0,0.8v0.1C9.3,18.1,8.2,17.5,7.2,16.5z M13.5,18.4L13.5,18.4c0-0.3,0-0.5,0-0.7l0,0l0.1-1.7l0,0
		c0-0.2,0-0.3,0-0.5c0.1-0.1,0.4-0.3,0.5-0.3c0.2,0.1,0.3,0.2,0.5,0.3l0,0l0.1,0.1l0,0l0,0l1.3,0.7l0,0c0.2,0.1,0.4,0.2,0.6,0.3h0.1
		C16.2,17.2,14.6,18.1,13.5,18.4z M17.4,15.7l-0.3-0.2c-0.3-0.2-0.6-0.3-0.9-0.5l-0.7-0.4c-0.4-0.2-0.7-0.4-1.1-0.6
		c-0.2-0.1-0.4-0.1-0.7,0c-0.3,0.2-0.5,0.3-0.8,0.5c-0.2,0.1-0.4,0.3-0.4,0.6c0,0.6-0.1,1.2-0.1,1.8l-0.1,1c0,0.2,0,0.4,0,0.6
		c-0.1,0-0.2,0-0.3,0h-0.3v-0.4c0-0.4,0-0.8-0.1-1.1l-0.1-2c0-0.3-0.2-0.4-0.4-0.5c-0.3-0.1-0.5-0.3-0.8-0.5c-0.2-0.2-0.5-0.2-0.7,0
		c-0.8,0.4-1.5,0.8-2.3,1.2l-0.6,0.3c0,0,0,0-0.1,0L6.2,15L7,14.4c0.7-0.5,1.3-0.9,2-1.3c0.3-0.2,0.4-0.4,0.3-0.7c0-0.3,0-0.5,0-0.8
		S9.2,11.1,9,10.9C8.4,10.5,7.7,10,7,9.6L6.3,9.1c0,0-0.1,0-0.1-0.1l0.3-0.6h0.1l0.7,0.4C8.1,9.2,8.8,9.6,9.5,10
		c0.3,0.1,0.5,0.1,0.8-0.1c0.2-0.2,0.5-0.3,0.7-0.4c0.3-0.1,0.4-0.3,0.4-0.6c0-0.7,0.1-1.5,0.1-2.2l0.1-1.2h0.3c0.1,0,0.3,0,0.4,0
		l0,0c0,0.7,0.1,1.4,0.1,2.1v0.6c0,0.2,0,0.5,0,0.7c0,0.3,0.1,0.5,0.4,0.6c0.3,0.1,0.5,0.3,0.7,0.4c0.3,0.2,0.5,0.2,0.8,0.1
		c0.7-0.4,1.4-0.8,2.1-1.2l0.9-0.5l0.4,0.6l-2.9,2c-0.2,0.1-0.3,0.3-0.3,0.6c0,0.4,0,0.7,0,1s0.1,0.4,0.3,0.6c0.7,0.5,1.4,1,2.1,1.5
		l0.7,0.5L17.4,15.7z M18.2,14c-0.2-0.1-0.3-0.2-0.5-0.4l0,0l-1.3-0.9l0,0c-0.2-0.1-0.4-0.2-0.5-0.3c0,0,0,0,0-0.1v-0.1
		c0-0.1,0-0.2,0-0.3c-0.1-0.2,0-0.3,0.2-0.4c0.1-0.1,0.3-0.2,0.4-0.3l0,0l1.4-0.9l0,0c0.1-0.1,0.3-0.2,0.4-0.3l0,0
		C18.6,10.9,18.6,13,18.2,14L18.2,14z"/>
	<path class="st0" d="M12,10.3c-0.9,0-1.7,0.8-1.7,1.7s0.8,1.7,1.7,1.7l0,0c0.9,0,1.7-0.8,1.7-1.7c0-0.4-0.2-0.9-0.5-1.2
		S12.4,10.3,12,10.3z M12,11.4v-0.2l0,0V11.4c0.2,0,0.4,0.1,0.5,0.2c0.1,0.1,0.2,0.3,0.2,0.5c0,0.4-0.2,0.6-0.6,0.6
		c-0.4,0-0.6-0.2-0.6-0.6C11.4,11.6,11.6,11.4,12,11.4z M12,13.6L12,13.6L12,13.6L12,13.6z"/>
</g>
</svg>
