<?xml version="1.0" encoding="utf-8"?>
<!-- Generator: Adobe Illustrator 22.0.1, SVG Export Plug-In . SVG Version: 6.00 Build 0)  -->
<svg version="1.1" id="Layer_1" xmlns="http://www.w3.org/2000/svg" xmlns:xlink="http://www.w3.org/1999/xlink" x="0px" y="0px"
	 viewBox="0 0 24 24" style="enable-background:new 0 0 24 24;" xml:space="preserve">
<style type="text/css">
	.st0{fill:none;stroke:#CFCFCF;stroke-width:2.0081;stroke-miterlimit:10;}
	.st1{fill:none;stroke:#231F20;stroke-width:2.0081;stroke-miterlimit:10;}
	.st2{fill:#CFCFCF;}
	.st3{fill:#BFC5D0;}
	.st4{fill:none;}
	.st5{fill:#FDBA12;}
	.st6{fill:#5B8661;}
</style>
<g>
	<path class="st3" d="M10.6,23.1c1.1,0,2-0.9,2-2h-4C8.6,22.2,9.5,23.1,10.6,23.1z M17.1,17v-5.6c0-3.1-2.1-5.7-5-6.4V4.4
		c0-0.8-0.7-1.5-1.5-1.5c-0.8,0-1.5,0.7-1.5,1.5v0.7c-2.9,0.7-5,3.3-5,6.4V17l-2,2v1h17v-1L17.1,17z M15.1,18h-9v-6.6
		c0-2.5,2-4.5,4.5-4.5c2.5,0,4.5,2,4.5,4.5V18z"/>
	<path class="st4" d="M-0.9,0.9h24v24.2h-24V0.9z"/>
</g>
<ellipse class="st6" cx="18.1" cy="5.9" rx="5" ry="5.1"/>
</svg>
