<?xml version="1.0" encoding="utf-8"?>
<!-- Generator: Adobe Illustrator 16.0.0, SVG Export Plug-In . SVG Version: 6.00 Build 0)  -->
<!DOCTYPE svg PUBLIC "-//W3C//DTD SVG 1.1//EN" "http://www.w3.org/Graphics/SVG/1.1/DTD/svg11.dtd">
<svg version="1.1" id="Layer_1" xmlns="http://www.w3.org/2000/svg" xmlns:xlink="http://www.w3.org/1999/xlink" x="0px" y="0px"
	 width="24.625px" height="39.375px" viewBox="0 0 24.625 39.375" enable-background="new 0 0 24.625 39.375" xml:space="preserve">
<path fill="#FFFFFF" d="M12.738,36.945c-0.457-0.072-0.916-0.139-1.373-0.223c-3.813-0.688-7.154-4.016-7.837-7.839
	c-0.126-0.7-0.194-1.423-0.196-2.136c-0.016-5.701-0.011-11.401-0.01-17.103c0.002-3.634,2.864-6.968,6.426-7.582
	c3.123-0.538,6.179,1.155,7.709,3.655c0.764,1.247,1.137,2.597,1.139,4.053c0.002,4.23,0.004,8.46,0,12.69
	c-0.004,2.729-2.279,5.266-4.996,5.482c-2.001,0.162-3.578-0.707-4.788-2.267c-0.766-0.987-1.114-2.124-1.11-3.372
	c0.004-1.916,0.01-3.832-0.008-5.748c-0.002-0.328,0.102-0.405,0.406-0.39c0.466,0.023,0.936,0.022,1.401,0
	c0.276-0.014,0.346,0.083,0.345,0.35c-0.01,2.04-0.008,4.081-0.006,6.122c0.003,1.603,0.94,2.797,2.51,3.131
	c1.792,0.379,3.714-0.444,4.074-2.612c0.026-0.156,0.032-0.316,0.032-0.476c0.002-4.401,0.005-8.803,0.001-13.204
	c-0.004-3.087-2.318-5.393-5.414-5.395c-2.362,0.002-4.119,1.002-5.129,3.18C5.588,7.962,5.459,8.712,5.46,9.485
	c0.003,5.905-0.002,11.812,0.003,17.718c0.003,3.758,2.48,6.793,6.197,7.436c3.207,0.555,5.904-0.402,7.852-3.102
	c0.891-1.232,1.312-2.65,1.318-4.167c0.016-3.58,0.005-7.161,0.005-10.741c0-0.454,0.001-0.454,0.468-0.455
	c0.434,0,0.867,0.021,1.299-0.006c0.31-0.02,0.381,0.086,0.379,0.384c-0.01,3.181-0.014,6.362-0.002,9.543
	c0.004,1.245-0.014,2.492-0.422,3.681c-1.332,3.884-3.99,6.269-8.059,7.021c-0.334,0.062-0.672,0.103-1.008,0.151
	C13.24,36.945,12.988,36.945,12.738,36.945z"/>
</svg>
